<?xml version="1.0" standalone="no"?>
<!DOCTYPE svg PUBLIC "-//W3C//DTD SVG 20010904//EN"
 "http://www.w3.org/TR/2001/REC-SVG-20010904/DTD/svg10.dtd">
<svg version="1.0" xmlns="http://www.w3.org/2000/svg"
 width="1080.000000pt" height="1080.000000pt" viewBox="0 0 1080.000000 1080.000000"
 preserveAspectRatio="xMidYMid meet">
<metadata>
Created by potrace 1.16, written by Peter Selinger 2001-2019
</metadata>
<g transform="translate(0.000000,1080.000000) scale(0.100000,-0.100000)"
fill="#000000" stroke="none">
<path d="M5776 9708 c-179 -18 -339 -164 -380 -348 -43 -187 1 -348 126 -467
85 -79 184 -121 328 -138 105 -12 262 30 338 92 l22 18 -36 55 c-21 30 -38 56
-39 57 -1 2 -34 -14 -75 -35 -69 -35 -77 -37 -164 -36 -110 1 -182 26 -249 85
-52 45 -94 125 -99 184 -2 35 0 40 17 38 11 -1 179 -21 373 -44 194 -22 356
-38 360 -34 4 4 7 57 7 118 -1 93 -5 122 -24 169 -81 205 -267 310 -505 286z
m172 -153 c75 -23 131 -70 169 -144 38 -72 45 -141 16 -141 -45 2 -564 67
-569 72 -3 4 4 28 16 55 62 141 210 205 368 158z"/>
<path d="M4733 9689 c-121 -21 -220 -76 -278 -156 -16 -23 -33 -42 -37 -42 -3
-1 -9 26 -13 60 -4 33 -12 62 -19 65 -6 2 -42 -2 -81 -9 -69 -12 -70 -13 -66
-42 9 -82 208 -1216 214 -1221 4 -4 40 -1 82 6 59 10 75 16 75 30 0 9 -16 110
-35 224 -20 115 -35 212 -33 217 2 5 21 -3 42 -18 154 -104 399 -75 549 65 95
89 139 190 140 322 4 281 -168 483 -428 503 -33 3 -83 1 -112 -4z m195 -180
c107 -53 163 -147 170 -285 6 -115 -14 -172 -87 -245 -67 -67 -131 -92 -232
-91 -151 1 -265 102 -299 267 -24 115 6 220 87 300 58 58 126 84 224 84 65 1
84 -3 137 -30z"/>
<path d="M6649 9513 c-6 -16 -75 -206 -154 -423 -79 -217 -146 -402 -149 -410
-5 -11 12 -22 71 -43 42 -15 80 -24 83 -20 4 5 42 105 85 223 112 310 137 353
230 396 59 28 156 32 220 9 22 -8 43 -11 46 -7 9 10 49 120 49 135 0 18 -89
39 -164 40 -66 0 -126 -15 -168 -44 -14 -11 -28 -19 -31 -19 -2 0 6 30 20 67
13 36 20 69 16 73 -10 8 -121 50 -134 50 -5 0 -14 -12 -20 -27z"/>
<path d="M3549 9318 c-135 -48 -250 -142 -305 -251 -34 -67 -57 -179 -49 -242
23 -180 131 -336 283 -408 64 -31 72 -32 192 -32 l125 0 85 41 c191 92 290
240 290 433 -1 190 -110 364 -280 445 -58 27 -77 31 -170 34 -89 2 -115 -1
-171 -20z m270 -163 c67 -37 116 -91 154 -173 41 -87 43 -192 7 -267 -30 -62
-85 -117 -152 -152 -46 -24 -65 -28 -138 -28 -73 0 -92 4 -136 27 -132 69
-214 239 -185 380 41 194 278 306 450 213z"/>
<path d="M2502 9099 c-57 -46 -62 -53 -49 -67 8 -10 178 -224 377 -477 200
-253 375 -475 389 -492 14 -18 29 -33 33 -33 9 0 128 91 128 97 0 8 -804 1023
-810 1023 -3 0 -34 -23 -68 -51z"/>
<path d="M8323 8138 l-492 -371 46 -61 c26 -34 50 -65 54 -70 5 -5 91 53 202
137 106 81 198 147 203 147 5 0 90 -108 189 -240 99 -132 183 -240 188 -240
17 0 107 75 106 90 0 8 -80 121 -179 250 -98 129 -176 238 -174 241 12 20 327
250 337 246 7 -2 102 -124 212 -270 110 -147 204 -266 208 -267 9 0 117 80
117 87 0 7 -518 693 -523 693 -1 0 -223 -167 -494 -372z"/>
<path d="M7306 8379 c-82 -64 -64 -181 33 -210 75 -22 151 40 151 125 0 30 -7
45 -34 72 -29 29 -41 34 -79 34 -30 0 -53 -7 -71 -21z"/>
<path d="M2335 8372 c-79 -27 -137 -66 -198 -131 -203 -220 -169 -530 77 -706
208 -148 444 -120 630 75 106 111 162 239 154 352 l-3 43 -71 3 -71 3 -5 -70
c-7 -92 -43 -164 -119 -237 -76 -72 -134 -97 -224 -98 -71 -1 -165 25 -165 45
0 8 375 459 463 556 20 22 20 23 1 44 -34 39 -136 99 -202 119 -81 25 -198 26
-267 2z m248 -157 c20 -10 37 -22 37 -27 0 -11 -370 -448 -379 -448 -14 0 -40
36 -62 85 -30 66 -31 162 -2 226 35 79 117 156 191 180 44 14 172 4 215 -16z"/>
<path d="M1695 7651 c-36 -73 -36 -73 -17 -95 132 -146 512 -589 509 -593 -5
-4 -472 11 -692 22 l-110 6 -38 -77 c-21 -42 -36 -78 -34 -81 4 -3 857 -32
988 -33 23 0 31 9 63 76 20 42 33 81 29 87 -5 9 -403 467 -634 731 l-27 30
-37 -73z"/>
<path d="M8958 7246 c-351 -132 -402 -164 -461 -294 -17 -38 -21 -65 -21 -137
2 -178 92 -330 234 -394 47 -21 46 -21 -27 -45 -29 -10 -53 -21 -53 -24 0 -19
46 -135 55 -139 9 -3 605 212 847 306 l27 10 -25 68 c-14 37 -29 72 -34 77 -5
5 -106 -27 -244 -78 -129 -47 -258 -91 -286 -97 -133 -28 -245 32 -306 166
-51 111 -31 229 48 288 51 38 80 50 345 148 136 50 249 93 251 94 7 6 -53 155
-62 155 -6 -1 -135 -47 -288 -104z"/>
<path d="M1525 6588 c-184 -35 -324 -187 -355 -386 -39 -254 116 -472 375
-527 89 -19 134 -19 214 0 191 45 321 197 359 418 14 82 14 107 4 169 -12 70
-44 153 -74 191 -13 18 -17 17 -74 -17 l-61 -35 29 -59 c69 -139 37 -326 -75
-429 -60 -55 -99 -74 -167 -80 l-57 -5 63 347 c34 192 65 361 68 376 5 26 4
27 -58 38 -73 13 -121 13 -191 -1z m102 -170 c-3 -13 -27 -142 -53 -288 -26
-146 -50 -268 -53 -272 -11 -13 -88 29 -128 69 -56 56 -77 105 -81 193 -3 59
1 87 18 132 40 107 150 186 259 187 40 1 43 -1 38 -21z"/>
<path d="M9308 6091 c-333 -47 -609 -89 -612 -92 -4 -3 -1 -40 6 -82 9 -63 15
-77 29 -77 10 0 96 11 191 25 95 13 369 51 608 85 239 33 446 63 459 66 21 5
23 8 17 52 -17 116 -15 112 -55 111 -20 -1 -309 -40 -643 -88z"/>
<path d="M9420 5600 c-223 -4 -467 -8 -542 -9 l-138 -1 0 -86 0 -86 383 6
c210 3 505 9 655 12 l273 6 -3 82 -3 81 -110 1 c-60 0 -292 -3 -515 -6z"/>
<path d="M1320 5515 c-201 -43 -373 -200 -435 -397 -44 -139 -43 -206 6 -552
l43 -307 31 5 c16 3 289 42 605 87 316 45 578 85 581 88 9 8 -66 523 -87 610
-59 237 -222 409 -440 465 -75 19 -215 20 -304 1z m296 -180 c136 -39 253
-166 298 -325 16 -59 69 -411 62 -417 -7 -7 -906 -136 -911 -131 -11 10 -55
356 -55 427 0 135 37 237 118 323 118 127 306 174 488 123z"/>
<path d="M8843 5215 c-101 -113 -178 -305 -190 -476 -19 -271 121 -447 348
-437 68 3 81 7 132 41 85 56 117 106 247 380 82 173 153 233 247 208 55 -15
87 -42 114 -98 19 -39 23 -63 22 -133 -2 -117 -37 -225 -109 -332 -62 -93 -64
-83 25 -136 l44 -26 34 40 c47 54 109 183 134 279 31 119 31 269 1 358 -30 86
-99 165 -174 197 -72 31 -174 38 -232 16 -105 -40 -157 -105 -267 -334 -43
-90 -92 -183 -109 -207 -75 -110 -216 -107 -279 6 -72 128 -1 418 138 569 28
30 51 57 51 60 -1 8 -107 80 -119 80 -5 0 -31 -25 -58 -55z"/>
<path d="M8562 4167 c-53 -17 -128 -91 -162 -160 -31 -64 -47 -156 -36 -201 6
-25 10 -26 71 -26 l65 0 0 52 c0 62 29 129 68 154 55 36 98 25 362 -91 135
-60 246 -110 248 -111 2 -1 -19 -54 -47 -117 -28 -63 -51 -119 -51 -124 0 -6
27 -21 60 -36 l60 -26 28 62 c15 34 39 88 52 119 14 32 29 58 33 58 5 0 45
-16 88 -35 44 -19 84 -35 89 -35 12 0 72 130 67 145 -3 5 -41 26 -87 45 -45
19 -83 37 -86 41 -2 4 10 37 27 74 16 37 29 69 27 71 -7 7 -121 55 -123 52 -2
-2 -17 -34 -34 -72 -20 -43 -35 -66 -43 -63 -7 3 -119 52 -249 110 -129 58
-253 110 -275 116 -48 13 -108 13 -152 -2z"/>
<path d="M2150 3819 c-136 -22 -310 -150 -370 -273 -86 -175 -53 -370 87 -526
55 -61 115 -98 196 -120 l60 -17 -201 -137 c-111 -76 -205 -142 -208 -147 -7
-12 80 -135 93 -132 8 2 1053 712 1072 729 2 2 -18 33 -43 69 l-47 65 -61 -41
c-43 -30 -59 -37 -54 -24 4 10 9 44 13 75 19 189 -139 409 -337 468 -55 16
-140 21 -200 11z m217 -194 c104 -47 175 -150 181 -267 6 -94 -17 -155 -83
-226 -74 -80 -147 -116 -247 -121 -65 -3 -85 1 -131 22 -155 71 -235 264 -170
409 29 64 101 139 166 171 101 52 189 55 284 12z"/>
<path d="M8320 3681 c-98 -30 -198 -122 -257 -238 -34 -69 -38 -84 -38 -154 0
-48 -4 -75 -10 -71 -5 3 -25 17 -43 30 -19 15 -36 21 -41 16 -42 -47 -90 -118
-84 -124 51 -46 500 -371 537 -388 151 -71 282 -39 411 100 100 108 175 273
175 384 0 46 3 44 -95 59 l-40 6 -12 -76 c-20 -126 -95 -254 -179 -305 -48
-31 -96 -40 -146 -28 -43 9 -118 51 -118 66 0 4 45 68 99 141 146 197 183 284
161 385 -13 63 -41 107 -90 146 -66 52 -158 73 -230 51z m93 -165 c48 -19 87
-70 87 -112 0 -55 -29 -111 -123 -238 -49 -67 -92 -124 -96 -128 -4 -4 -32 13
-63 37 -49 39 -60 53 -74 100 -25 87 -2 176 65 259 67 83 136 111 204 82z"/>
<path d="M2918 3002 c-35 -3 -38 -5 -38 -35 0 -18 3 -49 6 -69 6 -37 8 -38 48
-38 94 0 218 -59 286 -136 61 -70 96 -174 84 -253 -7 -49 -28 -106 -42 -115
-5 -3 -139 100 -298 229 -159 129 -292 235 -296 235 -4 0 -25 -24 -47 -53
-151 -200 -138 -444 33 -612 125 -123 286 -170 441 -130 187 49 340 222 368
418 24 169 -62 344 -229 463 -101 72 -209 105 -316 96z m34 -563 c123 -100
224 -184 225 -188 5 -12 -93 -70 -140 -82 -181 -44 -367 105 -367 294 0 69 32
173 51 162 4 -3 108 -87 231 -186z"/>
<path d="M7560 2878 c-190 -67 -327 -231 -338 -404 l-5 -74 39 0 c22 0 55 3
75 6 36 6 37 8 43 58 27 211 263 344 448 253 64 -31 135 -104 167 -170 83
-171 13 -352 -167 -434 -48 -23 -64 -25 -133 -20 l-78 5 -22 -65 c-13 -40 -18
-68 -12 -74 5 -5 35 -15 66 -21 127 -27 275 28 393 146 204 204 206 473 4 677
-45 45 -87 76 -135 99 -64 31 -80 34 -175 37 -89 3 -115 0 -170 -19z"/>
<path d="M6963 2488 l-72 -30 15 -37 c8 -20 31 -73 50 -119 l34 -82 -50 -112
c-28 -62 -54 -115 -58 -119 -4 -4 -115 51 -247 122 -132 71 -244 129 -250 129
-5 -1 -50 -18 -99 -39 l-88 -38 53 -30 c30 -17 167 -92 304 -168 138 -75 251
-138 252 -139 1 0 -45 -113 -102 -251 -57 -137 -102 -251 -101 -253 2 -1 43
15 92 36 l89 38 141 308 c78 169 144 309 146 311 2 3 76 -165 163 -373 87
-207 161 -380 164 -384 8 -9 151 51 151 64 0 10 -25 71 -310 743 -100 237
-184 436 -187 443 -7 15 -5 16 -90 -20z"/>
<path d="M3555 1876 c-203 -288 -371 -528 -372 -533 -3 -8 124 -53 148 -53 3
0 143 193 310 429 167 236 305 427 307 426 2 -2 12 -238 21 -524 10 -287 21
-525 25 -528 9 -9 117 -43 137 -43 11 0 132 160 325 427 169 235 309 423 310
417 1 -5 7 -225 13 -489 7 -264 14 -498 17 -520 l5 -40 80 -23 c44 -13 83 -22
85 -20 4 5 -35 1290 -40 1295 -5 6 -178 54 -180 51 -2 -2 -137 -191 -301 -420
-164 -230 -300 -417 -301 -415 -2 1 -10 211 -19 467 -9 256 -18 488 -21 516
l-5 51 -77 23 c-42 13 -81 24 -87 26 -5 2 -176 -232 -380 -520z"/>
<path d="M5629 2102 c-59 -53 -48 -161 21 -197 37 -19 73 -19 110 0 43 22 60
53 60 108 0 42 -5 54 -34 83 -29 29 -41 34 -80 34 -36 0 -52 -6 -77 -28z"/>
</g>
</svg>
